<?xml version="1.0" standalone="no"?><!DOCTYPE svg PUBLIC "-//W3C//DTD SVG 1.1//EN" "http://www.w3.org/Graphics/SVG/1.1/DTD/svg11.dtd"><svg t="1557126263075" class="icon" style="" viewBox="0 0 1025 1024" version="1.1" xmlns="http://www.w3.org/2000/svg" p-id="19391" xmlns:xlink="http://www.w3.org/1999/xlink" width="64.0625" height="64"><defs><style type="text/css"></style></defs><path d="M996.8 91.2c-36.8-36.8-97.6-36.8-134.4 0L312 633.6C244.8 632 152 656 112 787.2c-30.4 70.4-112 65.6-112 65.6 168 187.2 366.4 81.6 411.2 35.2 40-40 44.8-89.6 41.6-129.6l544-536C1033.6 187.2 1033.6 128 996.8 91.2zM366.4 844.8c-32 28.8-172.8 94.4-254.4 32 0 0 28.8-22.4 51.2-67.2 52.8-139.2 182.4-118.4 182.4-118.4l44.8 44.8C388.8 734.4 422.4 793.6 366.4 844.8zM433.6 691.2c-4.8-4.8-44.8-44.8-44.8-44.8l67.2-65.6 44.8 44.8L433.6 691.2zM952 179.2 545.6 580.8l-44.8-44.8L907.2 134.4c12.8-12.8 32-12.8 44.8 0C963.2 147.2 963.2 166.4 952 179.2z" p-id="19392"></path></svg>