<?xml version="1.0" standalone="no"?><!DOCTYPE svg PUBLIC "-//W3C//DTD SVG 1.1//EN" "http://www.w3.org/Graphics/SVG/1.1/DTD/svg11.dtd"><svg t="1557124991113" class="icon" style="" viewBox="0 0 1024 1024" version="1.1" xmlns="http://www.w3.org/2000/svg" p-id="11258" xmlns:xlink="http://www.w3.org/1999/xlink" width="64" height="64"><defs><style type="text/css"></style></defs><path d="M865.336374 379.030569" p-id="11259"></path><path d="M568.368822 810.850435 568.368822 563.218522l0.001023 0L568.369845 122.05894l164.586522 0c76.898391 0 87.691201 5.399987 117.374244 168.640861l49.92097 0L869.217774 64.046688 155.539472 64.046688l-32.377408 226.653113 49.913806 0c29.68202-161.89625 39.130206-168.640861 118.726032-168.640861L456.388425 122.05894l0 441.098183-0.001023 0L456.387401 810.850435c0 98.484012-6.745634 105.229646-126.816291 105.229646l0 43.170219 365.610932 0 0-43.170219C573.761646 916.081105 568.368822 909.335471 568.368822 810.850435z" p-id="11260"></path><path d="M958.963775 799.37815 857.43952 799.37815 857.43952 697.853895 799.425222 697.853895 799.425222 799.37815 697.899944 799.37815 697.899944 857.392448 799.425222 857.392448 799.425222 958.917726 857.43952 958.917726 857.43952 857.392448 958.963775 857.392448Z" p-id="11261"></path></svg>