<?xml version="1.0" standalone="no"?><!DOCTYPE svg PUBLIC "-//W3C//DTD SVG 1.1//EN" "http://www.w3.org/Graphics/SVG/1.1/DTD/svg11.dtd"><svg t="1557127100355" class="icon" style="" viewBox="0 0 1258 1024" version="1.1" xmlns="http://www.w3.org/2000/svg" p-id="25798" xmlns:xlink="http://www.w3.org/1999/xlink" width="78.625" height="64"><defs><style type="text/css"></style></defs><path d="M1170.285714 439.003429V965.485714a58.514286 58.514286 0 0 1-58.514285 58.514286H58.514286a58.514286 58.514286 0 0 1-58.514286-58.514286V175.542857a58.514286 58.514286 0 0 1 58.514286-58.514286h789.942857a29.257143 29.257143 0 1 1 0 58.514286H58.514286v789.942857h1053.257143V445.834971c-18.768457-22.279314-67.218286-41.940114-119.925029-43.344457-69.573486-1.857829-133.661257 25.994971-178.263771 85.2992-14.526171 19.309714-76.536686 108.017371-93.110858 128.804572-74.605714 93.637486-149.723429 115.0976-279.420342 61.937371-113.371429-46.460343-206.701714-2.486857-287.861029 140.258743a29.257143 29.257143 0 1 1-50.863543-28.920686c94.559086-166.312229 217.4976-224.256 360.916114-165.4784 105.091657 43.066514 152.722286 29.461943 211.470629-44.266057 15.169829-19.031771 76.536686-106.817829 92.101486-127.502628 56.554057-75.190857 138.883657-110.972343 226.596571-108.631772 75.483429 2.018743 146.475886 33.3824 172.8512 77.809372 3.218286 5.383314 4.476343 11.395657 4.022857 17.2032zM1082.514286 117.028571V29.257143a29.257143 29.257143 0 1 1 58.514285 0v87.771428h87.771429a29.257143 29.257143 0 1 1 0 58.514286h-87.771429v87.771429a29.257143 29.257143 0 1 1-58.514285 0v-87.771429h-87.771429a29.257143 29.257143 0 1 1 0-58.514286h87.771429zM380.342857 497.371429a102.4 102.4 0 1 1 0-204.8 102.4 102.4 0 0 1 0 204.8z m0-58.514286a43.885714 43.885714 0 1 0 0-87.771429 43.885714 43.885714 0 0 0 0 87.771429z" p-id="25799"></path></svg>