<svg class="icon" viewBox="0 0 1258 1024" xmlns="http://www.w3.org/2000/svg" width="78.625" height="64"><defs><style/></defs><path d="M1170.286 439.003v526.483A58.514 58.514 0 0 1 1111.77 1024H58.514A58.514 58.514 0 0 1 0 965.486V175.543a58.514 58.514 0 0 1 58.514-58.514h789.943a29.257 29.257 0 1 1 0 58.514H58.514v789.943h1053.257V445.835c-18.768-22.28-67.218-41.94-119.925-43.344-69.573-1.858-133.66 25.994-178.263 85.299-14.527 19.31-76.537 108.017-93.111 128.804-74.606 93.638-149.724 115.098-279.42 61.938-113.372-46.46-206.702-2.487-287.862 140.258a29.257 29.257 0 1 1-50.863-28.92c94.559-166.313 217.497-224.256 360.916-165.479 105.092 43.067 152.722 29.462 211.47-44.266 15.17-19.032 76.537-106.818 92.102-127.502C823.37 377.432 905.7 341.65 993.412 343.99c75.483 2.019 146.476 33.382 172.85 77.81 3.22 5.383 4.477 11.395 4.024 17.202zm-87.772-321.974V29.257a29.257 29.257 0 1 1 58.515 0v87.772h87.771a29.257 29.257 0 1 1 0 58.514h-87.771v87.771a29.257 29.257 0 1 1-58.515 0v-87.771h-87.771a29.257 29.257 0 1 1 0-58.514h87.771zM380.343 497.37a102.4 102.4 0 1 1 0-204.8 102.4 102.4 0 0 1 0 204.8zm0-58.514a43.886 43.886 0 1 0 0-87.771 43.886 43.886 0 0 0 0 87.771z"/></svg>