<svg class="icon" viewBox="0 0 1024 1024" xmlns="http://www.w3.org/2000/svg" width="64" height="64"><defs><style/></defs><path d="M853.344 341.344C853.344 294.4 814.944 256 768 256s-85.344 38.4-85.344 85.344 38.4 85.344 85.344 85.344 85.344-38.4 85.344-85.344z"/><path d="M0 85.344v853.344h512v-85.344H85.344V742.4l256-256L512 657.056l59.744-59.744-230.4-230.4-256 256V170.656h853.344v298.656l85.344 85.344V85.312z"/><path d="M951.456 840.544L1011.2 780.8 810.656 580.256 610.112 780.8l59.744 59.744L768 742.4v238.944h85.344V742.4z"/></svg>